<svg xmlns="http://www.w3.org/2000/svg" viewBox="0 0 720 540" role="img" aria-labelledby="title">
  <title id="title">茶餐厅焗饭简笔插画</title>
  <rect width="720" height="540" fill="#f4eee4"/>
  <path d="M120 375c45 62 435 62 480 0l-38 78H158z" fill="#fffaf2" stroke="#2d2630" stroke-width="10" stroke-linejoin="round"/>
  <path d="M146 347c28-86 94-130 214-130s186 44 214 130c-60 45-368 45-428 0z" fill="#dca861" stroke="#2d2630" stroke-width="10"/>
  <path d="M216 282c38-30 76-26 114 12m44-23c35-25 69-20 101 14m-215 44c44-23 90-19 137 10" fill="none" stroke="#672d7e" stroke-width="12" stroke-linecap="round"/>
  <path d="M537 132c42 18 54 60 31 103" fill="none" stroke="#2d2630" stroke-width="10" stroke-linecap="round"/>
  <path d="M499 123h82l-11 116h-60z" fill="#e8d7bd" stroke="#2d2630" stroke-width="10" stroke-linejoin="round"/>
  <path d="M520 104l48 18" stroke="#672d7e" stroke-width="10" stroke-linecap="round"/>
</svg>
